<svg width="268" height="49" viewBox="0 0 268 49" fill="none" xmlns="http://www.w3.org/2000/svg">
<path fill-rule="evenodd" clip-rule="evenodd" d="M4 4.71186C4 4.31871 4.3051 4 4.68146 4H8.09777C8.47413 4 8.77924 4.31871 8.77924 4.71186C8.77924 5.10502 8.47413 5.42373 8.09777 5.42373H5.36292V8.09322C5.36292 8.48637 5.05782 8.80508 4.68146 8.80508C4.3051 8.80508 4 8.48637 4 8.09322V4.71186ZM14.2489 4.71186C14.2489 4.31871 14.554 4 14.9303 4H21.7629C22.1392 4 22.4443 4.31871 22.4443 4.71186C22.4443 5.10502 22.1392 5.42373 21.7629 5.42373H14.9303C14.554 5.42373 14.2489 5.10502 14.2489 4.71186ZM27.914 4.71186C27.914 4.31871 28.2191 4 28.5954 4H35.428C35.8043 4 36.1094 4.31871 36.1094 4.71186C36.1094 5.10502 35.8043 5.42373 35.428 5.42373H28.5954C28.2191 5.42373 27.914 5.10502 27.914 4.71186ZM41.5791 4.71186C41.5791 4.31871 41.8842 4 42.2605 4H49.0931C49.4694 4 49.7745 4.31871 49.7745 4.71186C49.7745 5.10502 49.4694 5.42373 49.0931 5.42373H42.2605C41.8842 5.42373 41.5791 5.10502 41.5791 4.71186ZM55.2442 4.71186C55.2442 4.31871 55.5493 4 55.9256 4H62.7582C63.1345 4 63.4396 4.31871 63.4396 4.71186C63.4396 5.10502 63.1345 5.42373 62.7582 5.42373H55.9256C55.5493 5.42373 55.2442 5.10502 55.2442 4.71186ZM68.9093 4.71186C68.9093 4.31871 69.2144 4 69.5907 4H76.4233C76.7996 4 77.1047 4.31871 77.1047 4.71186C77.1047 5.10502 76.7996 5.42373 76.4233 5.42373H69.5907C69.2144 5.42373 68.9093 5.10502 68.9093 4.71186ZM82.5743 4.71186C82.5743 4.31871 82.8794 4 83.2558 4H90.0884C90.4647 4 90.7698 4.31871 90.7698 4.71186C90.7698 5.10502 90.4647 5.42373 90.0884 5.42373H83.2558C82.8794 5.42373 82.5743 5.10502 82.5743 4.71186ZM96.2395 4.71186C96.2395 4.31871 96.5446 4 96.9209 4H103.753C104.13 4 104.435 4.31871 104.435 4.71186C104.435 5.10502 104.13 5.42373 103.753 5.42373H96.9209C96.5446 5.42373 96.2395 5.10502 96.2395 4.71186ZM109.905 4.71186C109.905 4.31871 110.21 4 110.586 4H117.419C117.795 4 118.1 4.31871 118.1 4.71186C118.1 5.10502 117.795 5.42373 117.419 5.42373H110.586C110.21 5.42373 109.905 5.10502 109.905 4.71186ZM123.57 4.71186C123.57 4.31871 123.875 4 124.251 4H131.084C131.46 4 131.765 4.31871 131.765 4.71186C131.765 5.10502 131.46 5.42373 131.084 5.42373H124.251C123.875 5.42373 123.57 5.10502 123.57 4.71186ZM137.235 4.71186C137.235 4.31871 137.54 4 137.916 4H144.749C145.125 4 145.43 4.31871 145.43 4.71186C145.43 5.10502 145.125 5.42373 144.749 5.42373H137.916C137.54 5.42373 137.235 5.10502 137.235 4.71186ZM150.9 4.71186C150.9 4.31871 151.205 4 151.581 4H158.414C158.79 4 159.095 4.31871 159.095 4.71186C159.095 5.10502 158.79 5.42373 158.414 5.42373H151.581C151.205 5.42373 150.9 5.10502 150.9 4.71186ZM164.565 4.71186C164.565 4.31871 164.87 4 165.247 4H172.079C172.455 4 172.761 4.31871 172.761 4.71186C172.761 5.10502 172.455 5.42373 172.079 5.42373H165.247C164.87 5.42373 164.565 5.10502 164.565 4.71186ZM178.23 4.71186C178.23 4.31871 178.535 4 178.912 4H185.744C186.121 4 186.426 4.31871 186.426 4.71186C186.426 5.10502 186.121 5.42373 185.744 5.42373H178.912C178.535 5.42373 178.23 5.10502 178.23 4.71186ZM191.895 4.71186C191.895 4.31871 192.2 4 192.577 4H199.409C199.786 4 200.091 4.31871 200.091 4.71186C200.091 5.10502 199.786 5.42373 199.409 5.42373H192.577C192.2 5.42373 191.895 5.10502 191.895 4.71186ZM205.56 4.71186C205.56 4.31871 205.865 4 206.242 4H213.074C213.451 4 213.756 4.31871 213.756 4.71186C213.756 5.10502 213.451 5.42373 213.074 5.42373H206.242C205.865 5.42373 205.56 5.10502 205.56 4.71186ZM219.225 4.71186C219.225 4.31871 219.531 4 219.907 4H226.739C227.116 4 227.421 4.31871 227.421 4.71186C227.421 5.10502 227.116 5.42373 226.739 5.42373H219.907C219.531 5.42373 219.225 5.10502 219.225 4.71186ZM232.891 4.71186C232.891 4.31871 233.196 4 233.572 4H240.405C240.781 4 241.086 4.31871 241.086 4.71186C241.086 5.10502 240.781 5.42373 240.405 5.42373H233.572C233.196 5.42373 232.891 5.10502 232.891 4.71186ZM246.556 4.71186C246.556 4.31871 246.861 4 247.237 4H254.07C254.446 4 254.751 4.31871 254.751 4.71186C254.751 5.10502 254.446 5.42373 254.07 5.42373H247.237C246.861 5.42373 246.556 5.10502 246.556 4.71186ZM260.221 4.71186C260.221 4.31871 260.526 4 260.902 4H264.319C264.695 4 265 4.31871 265 4.71186V8.09322C265 8.48637 264.695 8.80508 264.319 8.80508C263.942 8.80508 263.637 8.48637 263.637 8.09322V5.42373H260.902C260.526 5.42373 260.221 5.10502 260.221 4.71186ZM4.68146 14.1441C5.05782 14.1441 5.36292 14.4628 5.36292 14.8559V21.6186C5.36292 22.0118 5.05782 22.3305 4.68146 22.3305C4.3051 22.3305 4 22.0118 4 21.6186V14.8559C4 14.4628 4.3051 14.1441 4.68146 14.1441ZM264.319 14.1441C264.695 14.1441 265 14.4628 265 14.8559V21.6186C265 22.0118 264.695 22.3305 264.319 22.3305C263.942 22.3305 263.637 22.0118 263.637 21.6186V14.8559C263.637 14.4628 263.942 14.1441 264.319 14.1441ZM4.68146 27.6695C5.05782 27.6695 5.36292 27.9882 5.36292 28.3814V35.1441C5.36292 35.5372 5.05782 35.8559 4.68146 35.8559C4.3051 35.8559 4 35.5372 4 35.1441V28.3814C4 27.9882 4.3051 27.6695 4.68146 27.6695ZM264.319 27.6695C264.695 27.6695 265 27.9882 265 28.3814V35.1441C265 35.5372 264.695 35.8559 264.319 35.8559C263.942 35.8559 263.637 35.5372 263.637 35.1441V28.3814C263.637 27.9882 263.942 27.6695 264.319 27.6695ZM4.68146 41.1949C5.05782 41.1949 5.36292 41.5136 5.36292 41.9068V44.5763H8.09774C8.4741 44.5763 8.7792 44.895 8.7792 45.2881C8.7792 45.6813 8.4741 46 8.09774 46H4.68146C4.3051 46 4 45.6813 4 45.2881V41.9068C4 41.5136 4.3051 41.1949 4.68146 41.1949ZM264.319 41.1949C264.695 41.1949 265 41.5136 265 41.9068V45.2881C265 45.6813 264.695 46 264.319 46H260.902C260.526 46 260.221 45.6813 260.221 45.2881C260.221 44.895 260.526 44.5763 260.902 44.5763H263.637V41.9068C263.637 41.5136 263.942 41.1949 264.319 41.1949ZM14.2488 45.2881C14.2488 44.895 14.5539 44.5763 14.9303 44.5763H21.7628C22.1392 44.5763 22.4443 44.895 22.4443 45.2881C22.4443 45.6813 22.1392 46 21.7628 46H14.9303C14.5539 46 14.2488 45.6813 14.2488 45.2881ZM27.9139 45.2881C27.9139 44.895 28.219 44.5763 28.5954 44.5763H35.428C35.8043 44.5763 36.1094 44.895 36.1094 45.2881C36.1094 45.6813 35.8043 46 35.428 46H28.5954C28.219 46 27.9139 45.6813 27.9139 45.2881ZM41.579 45.2881C41.579 44.895 41.8841 44.5763 42.2605 44.5763H49.0931C49.4694 44.5763 49.7745 44.895 49.7745 45.2881C49.7745 45.6813 49.4694 46 49.0931 46H42.2605C41.8841 46 41.579 45.6813 41.579 45.2881ZM55.2442 45.2881C55.2442 44.895 55.5493 44.5763 55.9256 44.5763H62.7582C63.1345 44.5763 63.4396 44.895 63.4396 45.2881C63.4396 45.6813 63.1345 46 62.7582 46H55.9256C55.5493 46 55.2442 45.6813 55.2442 45.2881ZM68.9093 45.2881C68.9093 44.895 69.2144 44.5763 69.5907 44.5763H76.4233C76.7996 44.5763 77.1047 44.895 77.1047 45.2881C77.1047 45.6813 76.7996 46 76.4233 46H69.5907C69.2144 46 68.9093 45.6813 68.9093 45.2881ZM82.5744 45.2881C82.5744 44.895 82.8795 44.5763 83.2558 44.5763H90.0884C90.4647 44.5763 90.7698 44.895 90.7698 45.2881C90.7698 45.6813 90.4647 46 90.0884 46H83.2558C82.8795 46 82.5744 45.6813 82.5744 45.2881ZM96.2395 45.2881C96.2395 44.895 96.5446 44.5763 96.9209 44.5763H103.753C104.13 44.5763 104.435 44.895 104.435 45.2881C104.435 45.6813 104.13 46 103.753 46H96.9209C96.5446 46 96.2395 45.6813 96.2395 45.2881ZM109.905 45.2881C109.905 44.895 110.21 44.5763 110.586 44.5763H117.419C117.795 44.5763 118.1 44.895 118.1 45.2881C118.1 45.6813 117.795 46 117.419 46H110.586C110.21 46 109.905 45.6813 109.905 45.2881ZM123.57 45.2881C123.57 44.895 123.875 44.5763 124.251 44.5763H131.084C131.46 44.5763 131.765 44.895 131.765 45.2881C131.765 45.6813 131.46 46 131.084 46H124.251C123.875 46 123.57 45.6813 123.57 45.2881ZM137.235 45.2881C137.235 44.895 137.54 44.5763 137.916 44.5763H144.749C145.125 44.5763 145.43 44.895 145.43 45.2881C145.43 45.6813 145.125 46 144.749 46H137.916C137.54 46 137.235 45.6813 137.235 45.2881ZM150.9 45.2881C150.9 44.895 151.205 44.5763 151.581 44.5763H158.414C158.79 44.5763 159.095 44.895 159.095 45.2881C159.095 45.6813 158.79 46 158.414 46H151.581C151.205 46 150.9 45.6813 150.9 45.2881ZM164.565 45.2881C164.565 44.895 164.87 44.5763 165.247 44.5763H172.079C172.455 44.5763 172.761 44.895 172.761 45.2881C172.761 45.6813 172.455 46 172.079 46H165.247C164.87 46 164.565 45.6813 164.565 45.2881ZM178.23 45.2881C178.23 44.895 178.535 44.5763 178.912 44.5763H185.744C186.121 44.5763 186.426 44.895 186.426 45.2881C186.426 45.6813 186.121 46 185.744 46H178.912C178.535 46 178.23 45.6813 178.23 45.2881ZM191.895 45.2881C191.895 44.895 192.2 44.5763 192.577 44.5763H199.409C199.786 44.5763 200.091 44.895 200.091 45.2881C200.091 45.6813 199.786 46 199.409 46H192.577C192.2 46 191.895 45.6813 191.895 45.2881ZM205.56 45.2881C205.56 44.895 205.865 44.5763 206.242 44.5763H213.074C213.451 44.5763 213.756 44.895 213.756 45.2881C213.756 45.6813 213.451 46 213.074 46H206.242C205.865 46 205.56 45.6813 205.56 45.2881ZM219.225 45.2881C219.225 44.895 219.531 44.5763 219.907 44.5763H226.739C227.116 44.5763 227.421 44.895 227.421 45.2881C227.421 45.6813 227.116 46 226.739 46H219.907C219.531 46 219.225 45.6813 219.225 45.2881ZM232.891 45.2881C232.891 44.895 233.196 44.5763 233.572 44.5763H240.405C240.781 44.5763 241.086 44.895 241.086 45.2881C241.086 45.6813 240.781 46 240.405 46H233.572C233.196 46 232.891 45.6813 232.891 45.2881ZM246.556 45.2881C246.556 44.895 246.861 44.5763 247.237 44.5763H254.07C254.446 44.5763 254.751 44.895 254.751 45.2881C254.751 45.6813 254.446 46 254.07 46H247.237C246.861 46 246.556 45.6813 246.556 45.2881Z" fill="#3A83F6"/>
<rect x="259" y="1" width="8" height="8" rx="1" fill="#F3F6FD" stroke="#3A83F6" stroke-width="2"/>
<rect x="259" y="40" width="8" height="8" rx="1" fill="#F3F6FD" stroke="#3A83F6" stroke-width="2"/>
<rect x="1" y="1" width="8" height="8" rx="1" fill="#F3F6FD" stroke="#3A83F6" stroke-width="2"/>
<rect x="1" y="40" width="8" height="8" rx="1" fill="#F3F6FD" stroke="#3A83F6" stroke-width="2"/>
</svg>
