<svg width="28" height="28" viewBox="0 0 28 28" fill="none" xmlns="http://www.w3.org/2000/svg">
<path d="M4.375 6.125C3.89175 6.125 3.5 5.73325 3.5 5.25C3.5 4.76675 3.89175 4.375 4.375 4.375H23.625C24.1082 4.375 24.5 4.76675 24.5 5.25C24.5 5.73325 24.1082 6.125 23.625 6.125H4.375Z" fill="#3E4957"/>
<path d="M7.875 2.625C7.39175 2.625 7 2.23325 7 1.75C7 1.26675 7.39175 0.875 7.875 0.875H20.125C20.6082 0.875 21 1.26675 21 1.75C21 2.23325 20.6082 2.625 20.125 2.625H7.875Z" fill="#3E4957"/>
<path d="M0 22.75C0 24.1997 1.17525 25.375 2.625 25.375H25.375C26.8247 25.375 28 24.1997 28 22.75V10.5C28 9.05025 26.8247 7.875 25.375 7.875H2.625C1.17525 7.875 0 9.05025 0 10.5V22.75ZM2.625 23.625C2.14175 23.625 1.75 23.2332 1.75 22.75V10.5C1.75 10.0168 2.14175 9.625 2.625 9.625H25.375C25.8582 9.625 26.25 10.0168 26.25 10.5V22.75C26.25 23.2332 25.8582 23.625 25.375 23.625H2.625Z" fill="#3E4957"/>
</svg>
