<svg width="18" height="19" viewBox="0 0 18 19" fill="none" xmlns="http://www.w3.org/2000/svg">
<path d="M18 9.5C18 14.4706 13.9706 18.5 9 18.5C4.02944 18.5 0 14.4706 0 9.5C0 4.52944 4.02944 0.5 9 0.5C13.9706 0.5 18 4.52944 18 9.5ZM13.5341 6.09088C13.2046 5.76137 12.6704 5.76137 12.3409 6.09088C12.3329 6.09884 12.3254 6.10726 12.3185 6.11612L8.41207 11.0938L6.05686 8.73863C5.72736 8.40912 5.19312 8.40912 4.86362 8.73863C4.53411 9.06813 4.53411 9.60236 4.86362 9.93187L7.84087 12.9091C8.17038 13.2386 8.70461 13.2386 9.03411 12.9091C9.04145 12.9018 9.04838 12.894 9.05486 12.8859L13.5461 7.27191C13.8636 6.94154 13.8596 6.41634 13.5341 6.09088Z" fill="#3A83F6"/>
</svg>
