<svg width="28" height="28" viewBox="0 0 28 28" fill="none" xmlns="http://www.w3.org/2000/svg">
<path d="M22.75 11.375C22.75 10.8918 22.3582 10.5 21.875 10.5H13.125C12.6418 10.5 12.25 10.8918 12.25 11.375C12.25 11.8582 12.6418 12.25 13.125 12.25H21.875C22.3582 12.25 22.75 11.8582 22.75 11.375Z" fill="#3E4957"/>
<path d="M22.75 16.625C22.75 16.1418 22.3582 15.75 21.875 15.75H13.125C12.6418 15.75 12.25 16.1418 12.25 16.625C12.25 17.1082 12.6418 17.5 13.125 17.5H21.875C22.3582 17.5 22.75 17.1082 22.75 16.625Z" fill="#3E4957"/>
<path d="M21.875 21C22.3582 21 22.75 21.3918 22.75 21.875C22.75 22.3582 22.3582 22.75 21.875 22.75H13.125C12.6418 22.75 12.25 22.3582 12.25 21.875C12.25 21.3918 12.6418 21 13.125 21H21.875Z" fill="#3E4957"/>
<path d="M24.5 0C26.433 0 28 1.567 28 3.5V24.5C28 26.433 26.433 28 24.5 28H3.5C1.567 28 0 26.433 0 24.5V3.5C0 1.567 1.567 0 3.5 0H24.5ZM3.5 1.75C2.5335 1.75 1.75 2.5335 1.75 3.5V5.25H26.25V3.5C26.25 2.5335 25.4665 1.75 24.5 1.75H3.5ZM1.75 7V24.5C1.75 25.4665 2.5335 26.25 3.5 26.25H7V7H1.75ZM8.75 7V26.25H24.5C25.4665 26.25 26.25 25.4665 26.25 24.5V7H8.75Z" fill="#3E4957"/>
</svg>
