<svg width="28" height="28" viewBox="0 0 28 28" fill="none" xmlns="http://www.w3.org/2000/svg">
<path d="M26.25 24.5C26.25 24.5 28 24.5 28 22.75C28 21 26.25 15.75 19.25 15.75C12.25 15.75 10.5 21 10.5 22.75C10.5 24.5 12.25 24.5 12.25 24.5H26.25ZM12.2891 22.75C12.283 22.7493 12.2746 22.7482 12.2643 22.7465C12.2594 22.7457 12.2547 22.7448 12.25 22.7439C12.2526 22.2818 12.542 20.9421 13.5787 19.7326C14.5483 18.6014 16.2447 17.5 19.25 17.5C22.2553 17.5 23.9516 18.6014 24.9213 19.7326C25.958 20.9421 26.2474 22.2818 26.25 22.7439C26.2453 22.7448 26.2406 22.7457 26.2357 22.7465C26.2254 22.7482 26.217 22.7493 26.2109 22.75H12.2891Z" fill="#3E4957"/>
<path d="M19.25 12.25C21.183 12.25 22.75 10.683 22.75 8.75C22.75 6.817 21.183 5.25 19.25 5.25C17.317 5.25 15.75 6.817 15.75 8.75C15.75 10.683 17.317 12.25 19.25 12.25ZM24.5 8.75C24.5 11.6495 22.1495 14 19.25 14C16.3505 14 14 11.6495 14 8.75C14 5.85051 16.3505 3.5 19.25 3.5C22.1495 3.5 24.5 5.85051 24.5 8.75Z" fill="#3E4957"/>
<path d="M12.1379 16.2399C11.4942 16.0341 10.7792 15.8844 9.98599 15.8078C9.59341 15.77 9.18169 15.75 8.75 15.75C1.75 15.75 0 21 0 22.75C0 23.9167 0.583333 24.5 1.75 24.5H9.12863C8.88223 24.0029 8.75 23.4135 8.75 22.75C8.75 20.982 9.41018 19.1765 10.6572 17.6683C11.0832 17.1531 11.5778 16.6725 12.1379 16.2399ZM8.61007 17.5008C7.56447 19.0988 7 20.9207 7 22.75H1.75C1.75 22.2937 2.03743 20.9475 3.0787 19.7326C4.0332 18.6191 5.69186 17.5344 8.61007 17.5008Z" fill="#3E4957"/>
<path d="M2.625 9.625C2.625 6.72551 4.97551 4.375 7.875 4.375C10.7745 4.375 13.125 6.72551 13.125 9.625C13.125 12.5245 10.7745 14.875 7.875 14.875C4.97551 14.875 2.625 12.5245 2.625 9.625ZM7.875 6.125C5.942 6.125 4.375 7.692 4.375 9.625C4.375 11.558 5.942 13.125 7.875 13.125C9.808 13.125 11.375 11.558 11.375 9.625C11.375 7.692 9.808 6.125 7.875 6.125Z" fill="#3E4957"/>
</svg>
