<svg width="18" height="18" viewBox="0 0 18 18" fill="none" xmlns="http://www.w3.org/2000/svg">
<path d="M9 16.875C4.65076 16.875 1.125 13.3492 1.125 9C1.125 4.65076 4.65076 1.125 9 1.125C13.3492 1.125 16.875 4.65076 16.875 9C16.875 13.3492 13.3492 16.875 9 16.875ZM9 18C13.9706 18 18 13.9706 18 9C18 4.02944 13.9706 0 9 0C4.02944 0 0 4.02944 0 9C0 13.9706 4.02944 18 9 18Z" fill="#3E4957"/>
<path d="M5.22725 5.22725C5.44692 5.00758 5.80308 5.00758 6.02275 5.22725L9 8.2045L11.9773 5.22725C12.1969 5.00758 12.5531 5.00758 12.7727 5.22725C12.9924 5.44692 12.9924 5.80308 12.7727 6.02275L9.7955 9L12.7727 11.9773C12.9924 12.1969 12.9924 12.5531 12.7727 12.7727C12.5531 12.9924 12.1969 12.9924 11.9773 12.7727L9 9.7955L6.02275 12.7727C5.80308 12.9924 5.44692 12.9924 5.22725 12.7727C5.00758 12.5531 5.00758 12.1969 5.22725 11.9773L8.2045 9L5.22725 6.02275C5.00758 5.80308 5.00758 5.44692 5.22725 5.22725Z" fill="#3E4957"/>
</svg>
